<svg width="640" height="640" viewBox="0 0 640 640" fill="none" xmlns="http://www.w3.org/2000/svg">
<rect width="640" height="640" rx="124" fill="#1B232A"/>
<g filter="url(#filter0_d_171_13587)">
<path d="M490.625 502C481.146 502 473.092 498.678 466.465 492.035C459.822 485.408 456.5 477.354 456.5 467.875V172.125C456.5 162.646 459.822 154.592 466.465 147.965C473.092 141.322 481.146 138 490.625 138C500.104 138 508.158 141.322 514.785 147.965C521.428 154.592 524.75 162.646 524.75 172.125V467.875C524.75 477.354 521.428 485.408 514.785 492.035C508.158 498.678 500.104 502 490.625 502ZM149.375 502C139.896 502 131.842 498.678 125.214 492.035C118.571 485.408 115.25 477.354 115.25 467.875V376.875C115.25 367.396 118.571 359.342 125.214 352.714C131.842 346.071 139.896 342.75 149.375 342.75C158.854 342.75 166.908 346.071 173.535 352.714C180.178 359.342 183.5 367.396 183.5 376.875V467.875C183.5 477.354 180.178 485.408 173.535 492.035C166.908 498.678 158.854 502 149.375 502ZM399.625 206.25C390.146 206.25 382.092 202.928 375.465 196.285C368.822 189.658 365.5 181.604 365.5 172.125C365.5 162.646 368.822 154.592 375.465 147.965C382.092 141.322 390.146 138 399.625 138C409.104 138 417.158 141.322 423.785 147.965C430.428 154.592 433.75 162.646 433.75 172.125C433.75 181.604 430.428 189.658 423.785 196.285C417.158 202.928 409.104 206.25 399.625 206.25ZM308.625 251.75C299.146 251.75 291.092 248.429 284.464 241.786C277.821 235.158 274.5 227.104 274.5 217.625V194.875C274.5 185.396 277.821 177.342 284.464 170.715C291.092 164.072 299.146 160.75 308.625 160.75C318.104 160.75 326.158 164.072 332.786 170.715C339.429 177.342 342.75 185.396 342.75 194.875V217.625C342.75 227.104 339.429 235.158 332.786 241.786C326.158 248.429 318.104 251.75 308.625 251.75ZM240.375 365.5C230.896 365.5 222.842 362.179 216.215 355.536C209.572 348.908 206.25 340.854 206.25 331.375V308.625C206.25 299.146 209.572 291.092 216.215 284.464C222.842 277.821 230.896 274.5 240.375 274.5C249.854 274.5 257.908 277.821 264.536 284.464C271.179 291.092 274.5 299.146 274.5 308.625V331.375C274.5 340.854 271.179 348.908 264.536 355.536C257.908 362.179 249.854 365.5 240.375 365.5Z" fill="url(#paint0_linear_171_13587)"/>
</g>
<defs>
<filter id="filter0_d_171_13587" x="84.25" y="114" width="471.5" height="426" filterUnits="userSpaceOnUse" color-interpolation-filters="sRGB">
<feFlood flood-opacity="0" result="BackgroundImageFix"/>
<feColorMatrix in="SourceAlpha" type="matrix" values="0 0 0 0 0 0 0 0 0 0 0 0 0 0 0 0 0 0 127 0" result="hardAlpha"/>
<feOffset dy="7"/>
<feGaussianBlur stdDeviation="15.5"/>
<feComposite in2="hardAlpha" operator="out"/>
<feColorMatrix type="matrix" values="0 0 0 0 0 0 0 0 0 0 0 0 0 0 0 0 0 0 0.25 0"/>
<feBlend mode="normal" in2="BackgroundImageFix" result="effect1_dropShadow_171_13587"/>
<feBlend mode="normal" in="SourceGraphic" in2="effect1_dropShadow_171_13587" result="shape"/>
</filter>
<linearGradient id="paint0_linear_171_13587" x1="320" y1="138" x2="320" y2="502" gradientUnits="userSpaceOnUse">
<stop stop-color="#DD4B4B"/>
<stop offset="1" stop-color="#169867"/>
</linearGradient>
</defs>
</svg>
